# xmcd
#
# Track frame offsets: 
#        150
#        13177
#        25766
#        37447
#        47963
#        63104
#        74145
#        85815
#        97302
#        110618
#        122724
#        131818
#        142895
#        153166
#        164724
#        179931
#        192178
#        207747
#        219281
#        229612
#        239546
#        249003
#        259593
#        270209
#        281005
#        290219
#        301315
#        312165
#        322024
#        331721
#        343127
#
# Disc length: 4778 seconds
#
# Revision: 0
# Processed by: cddbd v1.5.2PL0 Copyright (c) Steve Scherf et al.
# Submitted via: ExactAudioCopy v0.95b3
#
DISCID=e512a81f
DTITLE=Chet Atkins  - The Early Years 1946- 1957 [Best of] - Disc 4  F
DTITLE=LAC
DYEAR=1900
DGENRE=
TTITLE0=Get Up and Go - Chet Atkins
TTITLE1=South - Chet Atkins
TTITLE2=Alabama Jubilee - Chet Atkins
TTITLE3=Corinne, Corinna - Chet Atkins
TTITLE4=Indiana - Chet Atkins
TTITLE5=Red Wing - Chet Atkins
TTITLE6=Frankie and Johnnie - Chet Atkins
TTITLE7=Gay Ranchero - Chet Atkins
TTITLE8=Ballin' the Jack - Chet Atkins
TTITLE9=Honeysuckle Rose - Chet Atkins
TTITLE10=Darktown Strutters Ball - Chet Atkins, Hank Snow
TTITLE11=Old Spinning Wheel - Chet Atkins, Hank Snow
TTITLE12=Silver Bell - Chet Atkins, Hank Snow
TTITLE13=Under the Double Eagle - Chet Atkins, Hank Snow
TTITLE14=Birth of the Blues - Chet Atkins
TTITLE15=Have You Ever Been Lonely - Chet Atkins
TTITLE16=Caravan - Chet Atkins
TTITLE17=Old Man River - Chet Atkins
TTITLE18=Mister Sandman - Chet Atkins
TTITLE19=New Spanish Two Step - Chet Atkins
TTITLE20=Cherry Pink and Apple Blossom White - Chet Atkins
TTITLE21=Dance with Me Henry - Chet Atkins
TTITLE22=Darling, Je Vous Aime Beaucoup - Chet Atkins
TTITLE23=Tweedle Dee - Chet Atkins
TTITLE24=Hey Mr Guitar - Chet Atkins
TTITLE25=Unchained Melody - Chet Atkins
TTITLE26=Blues in the Night - Chet Atkins
TTITLE27=Somebody Stole My Gal - Chet Atkins
TTITLE28=Shine on Harvest Moon - Chet Atkins
TTITLE29=Intermezzo - Chet Atkins
TTITLE30=Tenderly - Chet Atkins
EXTD=
EXTT0=
EXTT1=
EXTT2=
EXTT3=
EXTT4=
EXTT5=
EXTT6=
EXTT7=
EXTT8=
EXTT9=
EXTT10=
EXTT11=
EXTT12=
EXTT13=
EXTT14=
EXTT15=
EXTT16=
EXTT17=
EXTT18=
EXTT19=
EXTT20=
EXTT21=
EXTT22=
EXTT23=
EXTT24=
EXTT25=
EXTT26=
EXTT27=
EXTT28=
EXTT29=
EXTT30=
PLAYORDER=
